<svg width="170" height="86" viewBox="0 0 170 86" version="1.1" xmlns="http://www.w3.org/2000/svg" xmlns:xlink="http://www.w3.org/1999/xlink">
<g id="Canvas" fill="none">
<g id="Rex logo">
<g id="Group 3">
<mask id="mask0" mask-type="alpha" maskUnits="userSpaceOnUse" x="0" y="0" width="86" height="86">
<g id="Clip 2">
<path fill-rule="evenodd" clip-rule="evenodd" d="M 0 43L 0 0L 43 0L 43 43L 0 43Z" transform="scale(2)" fill="white"/>
</g>
</mask>
<g mask="url(#mask0)">
<g id="Fill 1">
<path fill-rule="evenodd" clip-rule="evenodd" d="M 43 21.5051C 43 33.3786 33.3746 43 21.499 43C 9.61837 43 0 33.3786 0 21.5051C 0 9.62949 9.61837 0 21.499 0C 33.3746 0 43 9.62949 43 21.5051Z" transform="scale(2)" fill="#BF0000"/>
</g>
</g>
</g>
<g id="Fill 4">
<path fill-rule="evenodd" clip-rule="evenodd" d="M 4 4L 7.10977 4C 9.25027 4 11 5.79133 11 7.99718C 11 10.2098 9.25027 12 7.10977 12L 4 12L 4 4ZM 4.30228 23L 4.30228 15.8669L 7.34589 15.8669L 12.6145 23L 18 23L 11.6333 14.3921C 13.6174 12.9456 14.9207 10.594 14.9207 7.9294C 14.9207 3.55348 11.4182 0 7.11001 0L 0 0L 0 23L 4.30228 23Z" transform="translate(28 20) scale(2)" fill="white"/>
</g>
<g id="eX">
<path d="M 6.53835 20.03C 7.01835 17.87 8.39835 16.61 10.2284 16.61C 12.1484 16.61 13.4084 17.78 13.8584 20.03L 6.53835 20.03ZM 14.5784 26C 13.4984 27.44 12.2684 28.19 10.9184 28.19C 8.45835 28.19 6.74835 26.54 6.44835 23.87L 18.8383 23.87C 18.8984 23.39 18.9284 22.97 18.9284 22.49C 18.9284 17.03 15.0584 12.62 10.1984 12.62C 5.27835 12.62 1.46835 16.94 1.46835 22.58C 1.46835 28.34 5.36835 32.48 10.7984 32.48C 13.9484 32.48 16.3483 31.16 18.4784 28.25L 14.5784 26ZM 40.1957 32L 32.7857 20.06L 39.8357 8.39L 34.4657 8.39L 29.6057 16.64L 24.7457 8.39L 19.3757 8.39L 26.4257 20.06L 19.0157 32L 24.5657 32L 29.6057 23.66L 34.6457 32L 40.1957 32Z" transform="translate(88 4) scale(2)" fill="black"/>
</g>
</g>
</g>
</svg>

